# xmcd CD database file
#
# Track frame offsets:
#	150
#	10620
#	24979
#	36981
#	46395
#	60992
#	87194
#	104257
#	132830
#	144055
#	155039
#	168259
#
# Disc length: 2549 seconds
#
# Revision: 2
# Processed by: cddbd v1.5.2PL0 Copyright (c) Steve Scherf et al.
# Submitted via: CDex 1.51
#
DISCID=8909f30c
DTITLE=The Gama GT Blues Project - Blues à moda do Porto
DYEAR=2008
DGENRE=Blues
TTITLE0=Desejos Carnais
TTITLE1=Era bom ver-te voltar
TTITLE2=Dei à dor de beber
TTITLE3=Blues do cowboy
TTITLE4=Enfermeira Rosa
TTITLE5=A ultima noite (toco tudo com a mão)
TTITLE6=Everyday I'm a Bluesman
TTITLE7=4L
TTITLE8=Ana Luisa e o seu dedo
TTITLE9=O alvo do teu olhar
TTITLE10=Vestido preto
TTITLE11=Blues à moda do Porto
EXTD=YEAR: 2008
EXTT0=
EXTT1=
EXTT2=
EXTT3=
EXTT4=
EXTT5=
EXTT6=
EXTT7=
EXTT8=
EXTT9=
EXTT10=
EXTT11=
PLAYORDER=
